<mxfile host="app.diagrams.net" modified="2020-09-27T19:15:52.904Z" agent="5.0 (Windows)" etag="T17_cbuBtV_jr6Hj704n" version="13.7.4" type="github">
  <diagram id="HN70raXHhaBrVeVRw2aT" name="Page-1">
    <mxGraphModel dx="1401" dy="1979" grid="1" gridSize="10" guides="1" tooltips="1" connect="1" arrows="1" fold="1" page="1" pageScale="1" pageWidth="850" pageHeight="1100" math="0" shadow="0">
      <root>
        <mxCell id="0" />
        <mxCell id="1" parent="0" />
        <mxCell id="pXvHQ65hjFfUGfcUqaY1-6" value="Car vendor" style="swimlane;startSize=20;horizontal=0;" vertex="1" parent="1">
          <mxGeometry y="420" width="850" height="450" as="geometry" />
        </mxCell>
        <mxCell id="pXvHQ65hjFfUGfcUqaY1-8" value="Administrator" style="swimlane;startSize=20;horizontal=0;" vertex="1" parent="pXvHQ65hjFfUGfcUqaY1-6">
          <mxGeometry x="20" width="830" height="240" as="geometry" />
        </mxCell>
        <mxCell id="pXvHQ65hjFfUGfcUqaY1-34" value="&lt;div&gt;Order recieved from&lt;/div&gt;&lt;div&gt;private client&lt;br&gt;&lt;/div&gt;" style="shape=mxgraph.bpmn.shape;html=1;verticalLabelPosition=bottom;labelBackgroundColor=#ffffff;verticalAlign=top;align=center;perimeter=ellipsePerimeter;outlineConnect=0;outline=standard;symbol=message;" vertex="1" parent="pXvHQ65hjFfUGfcUqaY1-8">
          <mxGeometry x="290" y="20" width="50" height="50" as="geometry" />
        </mxCell>
        <mxCell id="pXvHQ65hjFfUGfcUqaY1-39" value="Order recieved from dealer" style="shape=mxgraph.bpmn.shape;html=1;verticalLabelPosition=bottom;labelBackgroundColor=#ffffff;verticalAlign=top;align=center;perimeter=ellipsePerimeter;outlineConnect=0;outline=standard;symbol=message;" vertex="1" parent="pXvHQ65hjFfUGfcUqaY1-8">
          <mxGeometry x="90" y="20" width="50" height="50" as="geometry" />
        </mxCell>
        <mxCell id="pXvHQ65hjFfUGfcUqaY1-7" value="Car Clerk" style="swimlane;startSize=20;horizontal=0;" vertex="1" parent="1">
          <mxGeometry x="20" y="660" width="830" height="210" as="geometry" />
        </mxCell>
        <mxCell id="pXvHQ65hjFfUGfcUqaY1-9" value="Car customer" style="swimlane;startSize=20;horizontal=0;" vertex="1" parent="1">
          <mxGeometry y="-120" width="850" height="460" as="geometry" />
        </mxCell>
        <mxCell id="pXvHQ65hjFfUGfcUqaY1-17" value="Private client" style="swimlane;startSize=20;horizontal=0;" vertex="1" parent="pXvHQ65hjFfUGfcUqaY1-9">
          <mxGeometry x="20" width="830" height="230" as="geometry" />
        </mxCell>
        <mxCell id="pXvHQ65hjFfUGfcUqaY1-21" style="edgeStyle=orthogonalEdgeStyle;rounded=0;orthogonalLoop=1;jettySize=auto;html=1;exitX=1;exitY=0.5;exitDx=0;exitDy=0;entryX=0;entryY=0.5;entryDx=0;entryDy=0;" edge="1" parent="pXvHQ65hjFfUGfcUqaY1-17" source="pXvHQ65hjFfUGfcUqaY1-19" target="pXvHQ65hjFfUGfcUqaY1-20">
          <mxGeometry relative="1" as="geometry" />
        </mxCell>
        <mxCell id="pXvHQ65hjFfUGfcUqaY1-19" value="Wants a car" style="shape=mxgraph.bpmn.shape;html=1;verticalLabelPosition=bottom;labelBackgroundColor=#ffffff;verticalAlign=top;align=center;perimeter=ellipsePerimeter;outlineConnect=0;outline=standard;symbol=general;" vertex="1" parent="pXvHQ65hjFfUGfcUqaY1-17">
          <mxGeometry x="50" y="25" width="50" height="50" as="geometry" />
        </mxCell>
        <mxCell id="pXvHQ65hjFfUGfcUqaY1-27" style="edgeStyle=orthogonalEdgeStyle;rounded=0;orthogonalLoop=1;jettySize=auto;html=1;exitX=0.5;exitY=1;exitDx=0;exitDy=0;entryX=0.5;entryY=0;entryDx=0;entryDy=0;" edge="1" parent="pXvHQ65hjFfUGfcUqaY1-17" source="pXvHQ65hjFfUGfcUqaY1-20" target="pXvHQ65hjFfUGfcUqaY1-26">
          <mxGeometry relative="1" as="geometry" />
        </mxCell>
        <mxCell id="pXvHQ65hjFfUGfcUqaY1-20" value="Select car package" style="shape=ext;rounded=1;html=1;whiteSpace=wrap;" vertex="1" parent="pXvHQ65hjFfUGfcUqaY1-17">
          <mxGeometry x="170" y="10" width="120" height="80" as="geometry" />
        </mxCell>
        <mxCell id="pXvHQ65hjFfUGfcUqaY1-24" value="Order car" style="shape=ext;rounded=1;html=1;whiteSpace=wrap;" vertex="1" parent="pXvHQ65hjFfUGfcUqaY1-17">
          <mxGeometry x="405" y="125" width="120" height="80" as="geometry" />
        </mxCell>
        <mxCell id="pXvHQ65hjFfUGfcUqaY1-29" style="edgeStyle=orthogonalEdgeStyle;rounded=0;orthogonalLoop=1;jettySize=auto;html=1;exitX=1;exitY=0.5;exitDx=0;exitDy=0;entryX=0;entryY=0.5;entryDx=0;entryDy=0;" edge="1" parent="pXvHQ65hjFfUGfcUqaY1-17" source="pXvHQ65hjFfUGfcUqaY1-26" target="pXvHQ65hjFfUGfcUqaY1-24">
          <mxGeometry relative="1" as="geometry" />
        </mxCell>
        <mxCell id="pXvHQ65hjFfUGfcUqaY1-26" value="" style="shape=mxgraph.bpmn.shape;html=1;verticalLabelPosition=bottom;labelBackgroundColor=#ffffff;verticalAlign=top;align=center;perimeter=rhombusPerimeter;background=gateway;outlineConnect=0;outline=none;symbol=parallelGw;" vertex="1" parent="pXvHQ65hjFfUGfcUqaY1-17">
          <mxGeometry x="205" y="140" width="50" height="50" as="geometry" />
        </mxCell>
        <mxCell id="pXvHQ65hjFfUGfcUqaY1-30" value="Decides to order car via dealer" style="text;html=1;align=center;verticalAlign=middle;resizable=0;points=[];autosize=1;" vertex="1" parent="pXvHQ65hjFfUGfcUqaY1-17">
          <mxGeometry x="35" y="140" width="180" height="20" as="geometry" />
        </mxCell>
        <mxCell id="pXvHQ65hjFfUGfcUqaY1-31" value="Decides to order car alone" style="text;html=1;align=center;verticalAlign=middle;resizable=0;points=[];autosize=1;" vertex="1" parent="pXvHQ65hjFfUGfcUqaY1-17">
          <mxGeometry x="250" y="170" width="150" height="20" as="geometry" />
        </mxCell>
        <mxCell id="pXvHQ65hjFfUGfcUqaY1-33" style="edgeStyle=orthogonalEdgeStyle;rounded=0;orthogonalLoop=1;jettySize=auto;html=1;exitX=1;exitY=0.5;exitDx=0;exitDy=0;entryX=0;entryY=0.5;entryDx=0;entryDy=0;" edge="1" parent="pXvHQ65hjFfUGfcUqaY1-9" source="pXvHQ65hjFfUGfcUqaY1-22" target="pXvHQ65hjFfUGfcUqaY1-32">
          <mxGeometry relative="1" as="geometry" />
        </mxCell>
        <mxCell id="pXvHQ65hjFfUGfcUqaY1-22" value="Contact dealer about ordering car" style="shape=ext;rounded=1;html=1;whiteSpace=wrap;" vertex="1" parent="pXvHQ65hjFfUGfcUqaY1-9">
          <mxGeometry x="60" y="250" width="120" height="80" as="geometry" />
        </mxCell>
        <mxCell id="pXvHQ65hjFfUGfcUqaY1-28" style="edgeStyle=orthogonalEdgeStyle;rounded=0;orthogonalLoop=1;jettySize=auto;html=1;exitX=0;exitY=0.5;exitDx=0;exitDy=0;entryX=0.5;entryY=0;entryDx=0;entryDy=0;" edge="1" parent="pXvHQ65hjFfUGfcUqaY1-9" source="pXvHQ65hjFfUGfcUqaY1-26" target="pXvHQ65hjFfUGfcUqaY1-22">
          <mxGeometry relative="1" as="geometry" />
        </mxCell>
        <mxCell id="pXvHQ65hjFfUGfcUqaY1-37" style="edgeStyle=orthogonalEdgeStyle;rounded=0;orthogonalLoop=1;jettySize=auto;html=1;exitX=0.5;exitY=1;exitDx=0;exitDy=0;entryX=1;entryY=0.5;entryDx=0;entryDy=0;" edge="1" parent="pXvHQ65hjFfUGfcUqaY1-9" source="pXvHQ65hjFfUGfcUqaY1-32" target="pXvHQ65hjFfUGfcUqaY1-36">
          <mxGeometry relative="1" as="geometry" />
        </mxCell>
        <mxCell id="pXvHQ65hjFfUGfcUqaY1-32" value="Recieve client&#39;s choices" style="shape=ext;rounded=1;html=1;whiteSpace=wrap;" vertex="1" parent="pXvHQ65hjFfUGfcUqaY1-9">
          <mxGeometry x="250" y="250" width="120" height="80" as="geometry" />
        </mxCell>
        <mxCell id="pXvHQ65hjFfUGfcUqaY1-36" value="Order car based on client&#39;s choices." style="shape=ext;rounded=1;html=1;whiteSpace=wrap;" vertex="1" parent="pXvHQ65hjFfUGfcUqaY1-9">
          <mxGeometry x="60" y="360" width="120" height="80" as="geometry" />
        </mxCell>
        <mxCell id="pXvHQ65hjFfUGfcUqaY1-16" value="Dealer" style="swimlane;startSize=20;horizontal=0;" vertex="1" parent="1">
          <mxGeometry x="20" y="110" width="830" height="230" as="geometry" />
        </mxCell>
        <mxCell id="pXvHQ65hjFfUGfcUqaY1-38" style="edgeStyle=orthogonalEdgeStyle;rounded=0;orthogonalLoop=1;jettySize=auto;html=1;exitX=0.5;exitY=1;exitDx=0;exitDy=0;entryX=0.5;entryY=0;entryDx=0;entryDy=0;dashed=1;dashPattern=1 2;strokeWidth=2;" edge="1" parent="1" source="pXvHQ65hjFfUGfcUqaY1-24" target="pXvHQ65hjFfUGfcUqaY1-34">
          <mxGeometry relative="1" as="geometry" />
        </mxCell>
        <mxCell id="pXvHQ65hjFfUGfcUqaY1-42" style="edgeStyle=orthogonalEdgeStyle;rounded=0;orthogonalLoop=1;jettySize=auto;html=1;exitX=0.5;exitY=1;exitDx=0;exitDy=0;entryX=0.5;entryY=0;entryDx=0;entryDy=0;dashed=1;dashPattern=1 2;strokeWidth=2;" edge="1" parent="1" source="pXvHQ65hjFfUGfcUqaY1-36" target="pXvHQ65hjFfUGfcUqaY1-39">
          <mxGeometry relative="1" as="geometry" />
        </mxCell>
      </root>
    </mxGraphModel>
  </diagram>
</mxfile>
